ffmpeg started on 2025-06-15 at 19:59:27
Report written to "D:\Convert\FFMetrics\reports\psnr_report-6.txt"
Log level: 32
Command line:
ffmpeg -hide_banner -nostdin -i "G:\\\xc0\xed\xe8\xec\xe5\\[\xd2\xee\xef]\\\xd1\xea\xe0\xe7\xe0\xed\xe8\xe5 \xee\xe1 \xee\xe1\xf0\xf3\xf7\xe0\xeb\xfc\xed\xfb\xf5 \xea\xee\xeb\xfc\xf6\xe0\xf5\\[DC] Kekkon Yubiwa Monogatari - 10_Telegram_HEVC.mkv" -i "G:\\\xc0\xed\xe8\xec\xe5\\[\xd2\xee\xef]\\\xd1\xea\xe0\xe7\xe0\xed\xe8\xe5 \xee\xe1 \xee\xe1\xf0\xf3\xf7\xe0\xeb\xfc\xed\xfb\xf5 \xea\xee\xeb\xfc\xf6\xe0\xf5\\[DC] Kekkon Yubiwa Monogatari - 10_Telegram.mp4" -lavfi "[0:v]settb=AVTB,setpts=PTS-STARTPTS,format=pix_fmts=yuv420p10,fps=24000/1001,scale=1920:1080:flags=bicubic[main];[1:v]settb=AVTB,setpts=PTS-STARTPTS,format=pix_fmts=yuv420p,fps=24000/1001,scale=1920:1080:flags=bicubic[ref];[main][ref]psnr=eof_action=endall:stats_file='D\\:/Convert/FFMetrics/logs/psnr_logfile-6.txt'" -f null -
Input #0, matroska,webm, from 'G:\Аниме\[Топ]\Сказание об обручальных кольцах\[DC] Kekkon Yubiwa Monogatari - 10_Telegram_HEVC.mkv':
  Metadata:
    COMPATIBLE_BRANDS: isomiso2avc1mp41
    MAJOR_BRAND     : isom
    MINOR_VERSION   : 512
    ENCODER         : Lavf61.7.100
  Duration: 00:23:48.65, start: -0.021000, bitrate: 1392 kb/s
  Stream #0:0: Video: hevc (Main 10), yuv420p10le(tv, bt709, progressive), 1920x1080 [SAR 1:1 DAR 16:9], 23.98 fps, 23.98 tbr, 1k tbn (default)
      Metadata:
        HANDLER_NAME    : VideoHandler
        VENDOR_ID       : [0][0][0][0]
        ENCODER         : Lavc61.19.100 libx265
        BPS             : 1195180
        DURATION        : 00:23:46.591708333
        NUMBER_OF_FRAMES: 34204
        NUMBER_OF_BYTES : 213129240
        _STATISTICS_WRITING_APP: mkvpropedit v66.0.0 ('Josie') 64-bit
        _STATISTICS_WRITING_DATE_UTC: 2025-06-15 15:52:20
        _STATISTICS_TAGS: BPS DURATION NUMBER_OF_FRAMES NUMBER_OF_BYTES
  Stream #0:1: Audio: aac (LC), 48000 Hz, stereo, fltp (default)
      Metadata:
        HANDLER_NAME    : SoundHandler
        VENDOR_ID       : [0][0][0][0]
        ENCODER         : Lavc61.19.100 aac
        BPS             : 195325
        DURATION        : 00:23:48.650000000
        NUMBER_OF_FRAMES: 66969
        NUMBER_OF_BYTES : 34881531
        _STATISTICS_WRITING_APP: mkvpropedit v66.0.0 ('Josie') 64-bit
        _STATISTICS_WRITING_DATE_UTC: 2025-06-15 15:52:20
        _STATISTICS_TAGS: BPS DURATION NUMBER_OF_FRAMES NUMBER_OF_BYTES
Input #1, mov,mp4,m4a,3gp,3g2,mj2, from 'G:\Аниме\[Топ]\Сказание об обручальных кольцах\[DC] Kekkon Yubiwa Monogatari - 10_Telegram.mp4':
  Metadata:
    major_brand     : isom
    minor_version   : 512
    compatible_brands: isomiso2avc1mp41
    encoder         : Lavf60.16.100
  Duration: 00:23:48.61, start: 0.000000, bitrate: 3866 kb/s
  Stream #1:0[0x1](und): Video: h264 (High) (avc1 / 0x31637661), yuv420p(tv, bt709, progressive), 1920x1080 [SAR 1:1 DAR 16:9], 3723 kb/s, 23.98 fps, 23.98 tbr, 24k tbn (default)
      Metadata:
        handler_name    : VideoHandler
        vendor_id       : [0][0][0][0]
        encoder         : Lavc60.31.102 h264_qsv
  Stream #1:1[0x2](und): Audio: aac (HE-AACv2) (mp4a / 0x6134706D), 48000 Hz, stereo, fltp, 144 kb/s (default)
      Metadata:
        handler_name    : SoundHandler
        vendor_id       : [0][0][0][0]
Stream mapping:
  Stream #0:0 (hevc) -> settb:default
  Stream #1:0 (h264) -> settb:default
  psnr:default -> Stream #0:0 (wrapped_avframe)
  Stream #0:1 -> #0:1 (aac (native) -> pcm_s16le (native))
Output #0, null, to 'pipe:':
  Metadata:
    COMPATIBLE_BRANDS: isomiso2avc1mp41
    MAJOR_BRAND     : isom
    MINOR_VERSION   : 512
    encoder         : Lavf61.7.100
  Stream #0:0: Video: wrapped_avframe, yuv420p10le(tv, bt709, progressive), 1920x1080 [SAR 1:1 DAR 16:9], q=2-31, 200 kb/s, 23.98 fps, 23.98 tbn
      Metadata:
        encoder         : Lavc61.19.100 wrapped_avframe
  Stream #0:1: Audio: pcm_s16le, 48000 Hz, stereo, s16, 1536 kb/s (default)
      Metadata:
        HANDLER_NAME    : SoundHandler
        VENDOR_ID       : [0][0][0][0]
        _STATISTICS_TAGS: BPS DURATION NUMBER_OF_FRAMES NUMBER_OF_BYTES
        BPS             : 195325
        DURATION        : 00:23:48.650000000
        NUMBER_OF_FRAMES: 66969
        NUMBER_OF_BYTES : 34881531
        _STATISTICS_WRITING_APP: mkvpropedit v66.0.0 ('Josie') 64-bit
        _STATISTICS_WRITING_DATE_UTC: 2025-06-15 15:52:20
        encoder         : Lavc61.19.100 pcm_s16le
frame=  174 fps=0.0 q=-0.0 size=N/A time=00:00:07.25 bitrate=N/A speed=14.2x    frame=  396 fps=382 q=-0.0 size=N/A time=00:00:16.51 bitrate=N/A speed=15.9x    frame=  647 fps=418 q=-0.0 size=N/A time=00:00:26.98 bitrate=N/A speed=17.4x    frame=  890 fps=430 q=-0.0 size=N/A time=00:00:37.12 bitrate=N/A speed=17.9x    frame= 1117 fps=434 q=-0.0 size=N/A time=00:00:46.58 bitrate=N/A speed=18.1x    frame= 1360 fps=439 q=-0.0 size=N/A time=00:00:56.72 bitrate=N/A speed=18.3x    frame= 1626 fps=450 q=-0.0 size=N/A time=00:01:07.81 bitrate=N/A speed=18.8x    frame= 1887 fps=456 q=-0.0 size=N/A time=00:01:18.70 bitrate=N/A speed=  19x    frame= 2115 fps=454 q=-0.0 size=N/A time=00:01:28.21 bitrate=N/A speed=18.9x    frame= 2335 fps=451 q=-0.0 size=N/A time=00:01:37.38 bitrate=N/A speed=18.8x    frame= 2583 fps=454 q=-0.0 size=N/A time=00:01:47.73 bitrate=N/A speed=18.9x    frame= 2822 fps=454 q=-0.0 size=N/A time=00:01:57.70 bitrate=N/A speed=18.9x    frame= 3062 fps=456 q=-0.0 size=N/A time=00:02:07.71 bitrate=N/A speed=  19x    frame= 3318 fps=458 q=-0.0 size=N/A time=00:02:18.38 bitrate=N/A speed=19.1x    frame= 3567 fps=460 q=-0.0 size=N/A time=00:02:28.77 bitrate=N/A speed=19.2x    frame= 3808 fps=461 q=-0.0 size=N/A time=00:02:38.82 bitrate=N/A speed=19.2x    frame= 4040 fps=459 q=-0.0 size=N/A time=00:02:48.50 bitrate=N/A speed=19.2x    frame= 4279 fps=460 q=-0.0 size=N/A time=00:02:58.46 bitrate=N/A speed=19.2x    frame= 4530 fps=462 q=-0.0 size=N/A time=00:03:08.93 bitrate=N/A speed=19.3x    frame= 4794 fps=464 q=-0.0 size=N/A time=00:03:19.94 bitrate=N/A speed=19.3x    frame= 5011 fps=462 q=-0.0 size=N/A time=00:03:29.00 bitrate=N/A speed=19.3x    frame= 5230 fps=460 q=-0.0 size=N/A time=00:03:38.13 bitrate=N/A speed=19.2x    frame= 5473 fps=461 q=-0.0 size=N/A time=00:03:48.26 bitrate=N/A speed=19.2x    frame= 5696 fps=460 q=-0.0 size=N/A time=00:03:57.57 bitrate=N/A speed=19.2x    frame= 5931 fps=459 q=-0.0 size=N/A time=00:04:07.37 bitrate=N/A speed=19.2x    frame= 6170 fps=459 q=-0.0 size=N/A time=00:04:17.34 bitrate=N/A speed=19.2x    frame= 6392 fps=458 q=-0.0 size=N/A time=00:04:26.59 bitrate=N/A speed=19.1x    frame= 6586 fps=455 q=-0.0 size=N/A time=00:04:34.69 bitrate=N/A speed=  19x    frame= 6758 fps=451 q=-0.0 size=N/A time=00:04:41.86 bitrate=N/A speed=18.8x    frame= 6943 fps=448 q=-0.0 size=N/A time=00:04:49.58 bitrate=N/A speed=18.7x    frame= 7158 fps=447 q=-0.0 size=N/A time=00:04:58.54 bitrate=N/A speed=18.6x    frame= 7398 fps=448 q=-0.0 size=N/A time=00:05:08.55 bitrate=N/A speed=18.7x    frame= 7577 fps=444 q=-0.0 size=N/A time=00:05:16.02 bitrate=N/A speed=18.5x    frame= 7797 fps=444 q=-0.0 size=N/A time=00:05:25.19 bitrate=N/A speed=18.5x    frame= 7967 fps=440 q=-0.0 size=N/A time=00:05:32.29 bitrate=N/A speed=18.4x    frame= 8122 fps=437 q=-0.0 size=N/A time=00:05:38.75 bitrate=N/A speed=18.2x    frame= 8341 fps=437 q=-0.0 size=N/A time=00:05:47.88 bitrate=N/A speed=18.2x    frame= 8550 fps=436 q=-0.0 size=N/A time=00:05:56.60 bitrate=N/A speed=18.2x    frame= 8764 fps=435 q=-0.0 size=N/A time=00:06:05.53 bitrate=N/A speed=18.1x    frame= 8927 fps=432 q=-0.0 size=N/A time=00:06:12.33 bitrate=N/A speed=  18x    frame= 9102 fps=430 q=-0.0 size=N/A time=00:06:19.62 bitrate=N/A speed=17.9x    frame= 9294 fps=428 q=-0.0 size=N/A time=00:06:27.63 bitrate=N/A speed=17.9x    frame= 9528 fps=429 q=-0.0 size=N/A time=00:06:37.39 bitrate=N/A speed=17.9x    frame= 9739 fps=429 q=-0.0 size=N/A time=00:06:46.19 bitrate=N/A speed=17.9x    frame= 9986 fps=430 q=-0.0 size=N/A time=00:06:56.49 bitrate=N/A speed=17.9x    frame=10227 fps=430 q=-0.0 size=N/A time=00:07:06.55 bitrate=N/A speed=  18x    frame=10480 fps=432 q=-0.0 size=N/A time=00:07:17.10 bitrate=N/A speed=  18x    frame=10706 fps=432 q=-0.0 size=N/A time=00:07:26.52 bitrate=N/A speed=  18x    frame=10948 fps=433 q=-0.0 size=N/A time=00:07:36.62 bitrate=N/A speed=  18x    frame=11160 fps=432 q=-0.0 size=N/A time=00:07:45.46 bitrate=N/A speed=  18x    frame=11402 fps=433 q=-0.0 size=N/A time=00:07:55.55 bitrate=N/A speed=18.1x    frame=11607 fps=432 q=-0.0 size=N/A time=00:08:04.10 bitrate=N/A speed=  18x    frame=11818 fps=432 q=-0.0 size=N/A time=00:08:12.90 bitrate=N/A speed=  18x    frame=12016 fps=431 q=-0.0 size=N/A time=00:08:21.16 bitrate=N/A speed=  18x    frame=12267 fps=432 q=-0.0 size=N/A time=00:08:31.63 bitrate=N/A speed=  18x    frame=12508 fps=433 q=-0.0 size=N/A time=00:08:41.68 bitrate=N/A speed=  18x    frame=12762 fps=434 q=-0.0 size=N/A time=00:08:52.28 bitrate=N/A speed=18.1x    frame=13005 fps=434 q=-0.0 size=N/A time=00:09:02.41 bitrate=N/A speed=18.1x    frame=13245 fps=435 q=-0.0 size=N/A time=00:09:12.42 bitrate=N/A speed=18.1x    frame=13470 fps=435 q=-0.0 size=N/A time=00:09:21.81 bitrate=N/A speed=18.1x    frame=13678 fps=434 q=-0.0 size=N/A time=00:09:30.48 bitrate=N/A speed=18.1x    frame=13919 fps=435 q=-0.0 size=N/A time=00:09:40.53 bitrate=N/A speed=18.1x    frame=14163 fps=435 q=-0.0 size=N/A time=00:09:50.71 bitrate=N/A speed=18.2x    frame=14420 fps=436 q=-0.0 size=N/A time=00:10:01.43 bitrate=N/A speed=18.2x    frame=14649 fps=436 q=-0.0 size=N/A time=00:10:10.98 bitrate=N/A speed=18.2x    frame=14866 fps=436 q=-0.0 size=N/A time=00:10:20.03 bitrate=N/A speed=18.2x    frame=15109 fps=437 q=-0.0 size=N/A time=00:10:30.17 bitrate=N/A speed=18.2x    frame=15375 fps=438 q=-0.0 size=N/A time=00:10:41.26 bitrate=N/A speed=18.3x    frame=15626 fps=439 q=-0.0 size=N/A time=00:10:51.73 bitrate=N/A speed=18.3x    frame=15871 fps=439 q=-0.0 size=N/A time=00:11:01.95 bitrate=N/A speed=18.3x    frame=16148 fps=440 q=-0.0 size=N/A time=00:11:13.50 bitrate=N/A speed=18.4x    frame=16388 fps=441 q=-0.0 size=N/A time=00:11:23.51 bitrate=N/A speed=18.4x    frame=16620 fps=441 q=-0.0 size=N/A time=00:11:33.19 bitrate=N/A speed=18.4x    frame=16885 fps=442 q=-0.0 size=N/A time=00:11:44.24 bitrate=N/A speed=18.4x    frame=17148 fps=443 q=-0.0 size=N/A time=00:11:55.21 bitrate=N/A speed=18.5x    frame=17419 fps=444 q=-0.0 size=N/A time=00:12:06.51 bitrate=N/A speed=18.5x    frame=17684 fps=445 q=-0.0 size=N/A time=00:12:17.57 bitrate=N/A speed=18.6x    frame=17903 fps=445 q=-0.0 size=N/A time=00:12:26.70 bitrate=N/A speed=18.5x    frame=18128 fps=444 q=-0.0 size=N/A time=00:12:36.08 bitrate=N/A speed=18.5x    frame=18360 fps=445 q=-0.0 size=N/A time=00:12:45.76 bitrate=N/A speed=18.5x    frame=18586 fps=444 q=-0.0 size=N/A time=00:12:55.19 bitrate=N/A speed=18.5x    frame=18823 fps=445 q=-0.0 size=N/A time=00:13:05.07 bitrate=N/A speed=18.5x    frame=19070 fps=445 q=-0.0 size=N/A time=00:13:15.37 bitrate=N/A speed=18.6x    frame=19290 fps=445 q=-0.0 size=N/A time=00:13:24.55 bitrate=N/A speed=18.6x    frame=19510 fps=445 q=-0.0 size=N/A time=00:13:33.72 bitrate=N/A speed=18.5x    frame=19754 fps=445 q=-0.0 size=N/A time=00:13:43.90 bitrate=N/A speed=18.6x    frame=19987 fps=445 q=-0.0 size=N/A time=00:13:53.62 bitrate=N/A speed=18.6x    frame=20221 fps=445 q=-0.0 size=N/A time=00:14:03.38 bitrate=N/A speed=18.6x    frame=20419 fps=444 q=-0.0 size=N/A time=00:14:11.64 bitrate=N/A speed=18.5x    frame=20652 fps=445 q=-0.0 size=N/A time=00:14:21.36 bitrate=N/A speed=18.5x    frame=20869 fps=444 q=-0.0 size=N/A time=00:14:30.41 bitrate=N/A speed=18.5x    frame=21122 fps=445 q=-0.0 size=N/A time=00:14:40.96 bitrate=N/A speed=18.6x    frame=21362 fps=445 q=-0.0 size=N/A time=00:14:50.97 bitrate=N/A speed=18.6x    frame=21610 fps=445 q=-0.0 size=N/A time=00:15:01.31 bitrate=N/A speed=18.6x    frame=21869 fps=446 q=-0.0 size=N/A time=00:15:12.11 bitrate=N/A speed=18.6x    frame=22095 fps=446 q=-0.0 size=N/A time=00:15:21.54 bitrate=N/A speed=18.6x    frame=22345 fps=446 q=-0.0 size=N/A time=00:15:31.97 bitrate=N/A speed=18.6x    frame=22586 fps=447 q=-0.0 size=N/A time=00:15:42.02 bitrate=N/A speed=18.6x    frame=22832 fps=447 q=-0.0 size=N/A time=00:15:52.28 bitrate=N/A speed=18.6x    frame=23066 fps=447 q=-0.0 size=N/A time=00:16:02.04 bitrate=N/A speed=18.6x    frame=23310 fps=447 q=-0.0 size=N/A time=00:16:12.22 bitrate=N/A speed=18.6x    frame=23567 fps=448 q=-0.0 size=N/A time=00:16:22.94 bitrate=N/A speed=18.7x    frame=23850 fps=449 q=-0.0 size=N/A time=00:16:34.74 bitrate=N/A speed=18.7x    frame=24100 fps=449 q=-0.0 size=N/A time=00:16:45.17 bitrate=N/A speed=18.7x    frame=24353 fps=449 q=-0.0 size=N/A time=00:16:55.72 bitrate=N/A speed=18.7x    frame=24559 fps=449 q=-0.0 size=N/A time=00:17:04.31 bitrate=N/A speed=18.7x    frame=24790 fps=449 q=-0.0 size=N/A time=00:17:13.94 bitrate=N/A speed=18.7x    frame=25020 fps=449 q=-0.0 size=N/A time=00:17:23.54 bitrate=N/A speed=18.7x    frame=25251 fps=449 q=-0.0 size=N/A time=00:17:33.17 bitrate=N/A speed=18.7x    frame=25475 fps=449 q=-0.0 size=N/A time=00:17:42.51 bitrate=N/A speed=18.7x    frame=25726 fps=449 q=-0.0 size=N/A time=00:17:52.98 bitrate=N/A speed=18.7x    frame=25988 fps=450 q=-0.0 size=N/A time=00:18:03.91 bitrate=N/A speed=18.8x    frame=26215 fps=450 q=-0.0 size=N/A time=00:18:13.42 bitrate=N/A speed=18.7x    frame=26410 fps=449 q=-0.0 size=N/A time=00:18:21.51 bitrate=N/A speed=18.7x    frame=26594 fps=448 q=-0.0 size=N/A time=00:18:29.19 bitrate=N/A speed=18.7x    frame=26782 fps=447 q=-0.0 size=N/A time=00:18:37.03 bitrate=N/A speed=18.7x    frame=26992 fps=447 q=-0.0 size=N/A time=00:18:45.79 bitrate=N/A speed=18.6x    frame=27157 fps=446 q=-0.0 size=N/A time=00:18:52.67 bitrate=N/A speed=18.6x    frame=27319 fps=445 q=-0.0 size=N/A time=00:18:59.42 bitrate=N/A speed=18.6x    frame=27528 fps=445 q=-0.0 size=N/A time=00:19:08.14 bitrate=N/A speed=18.5x    frame=27719 fps=444 q=-0.0 size=N/A time=00:19:16.11 bitrate=N/A speed=18.5x    frame=27977 fps=444 q=-0.0 size=N/A time=00:19:26.87 bitrate=N/A speed=18.5x    frame=28225 fps=445 q=-0.0 size=N/A time=00:19:37.21 bitrate=N/A speed=18.5x    frame=28414 fps=444 q=-0.0 size=N/A time=00:19:45.10 bitrate=N/A speed=18.5x    frame=28612 fps=444 q=-0.0 size=N/A time=00:19:53.35 bitrate=N/A speed=18.5x    frame=28826 fps=443 q=-0.0 size=N/A time=00:20:02.28 bitrate=N/A speed=18.5x    frame=29034 fps=443 q=-0.0 size=N/A time=00:20:10.95 bitrate=N/A speed=18.5x    frame=29257 fps=443 q=-0.0 size=N/A time=00:20:20.26 bitrate=N/A speed=18.5x    frame=29456 fps=443 q=-0.0 size=N/A time=00:20:28.56 bitrate=N/A speed=18.5x    frame=29671 fps=442 q=-0.0 size=N/A time=00:20:37.52 bitrate=N/A speed=18.4x    frame=29857 fps=442 q=-0.0 size=N/A time=00:20:45.28 bitrate=N/A speed=18.4x    frame=30040 fps=441 q=-0.0 size=N/A time=00:20:52.91 bitrate=N/A speed=18.4x    frame=30234 fps=441 q=-0.0 size=N/A time=00:21:01.00 bitrate=N/A speed=18.4x    frame=30468 fps=441 q=-0.0 size=N/A time=00:21:10.76 bitrate=N/A speed=18.4x    frame=30723 fps=441 q=-0.0 size=N/A time=00:21:21.40 bitrate=N/A speed=18.4x    frame=30964 fps=441 q=-0.0 size=N/A time=00:21:31.45 bitrate=N/A speed=18.4x    frame=31215 fps=442 q=-0.0 size=N/A time=00:21:41.92 bitrate=N/A speed=18.4x    frame=31462 fps=442 q=-0.0 size=N/A time=00:21:52.22 bitrate=N/A speed=18.4x    frame=31687 fps=442 q=-0.0 size=N/A time=00:22:01.61 bitrate=N/A speed=18.4x    frame=31929 fps=442 q=-0.0 size=N/A time=00:22:11.70 bitrate=N/A speed=18.4x    frame=32187 fps=442 q=-0.0 size=N/A time=00:22:22.46 bitrate=N/A speed=18.5x    frame=32431 fps=443 q=-0.0 size=N/A time=00:22:32.64 bitrate=N/A speed=18.5x    frame=32699 fps=443 q=-0.0 size=N/A time=00:22:43.82 bitrate=N/A speed=18.5x    frame=32954 fps=443 q=-0.0 size=N/A time=00:22:54.45 bitrate=N/A speed=18.5x    frame=33175 fps=443 q=-0.0 size=N/A time=00:23:03.67 bitrate=N/A speed=18.5x    frame=33419 fps=444 q=-0.0 size=N/A time=00:23:13.85 bitrate=N/A speed=18.5x    frame=33643 fps=444 q=-0.0 size=N/A time=00:23:23.19 bitrate=N/A speed=18.5x    frame=33897 fps=444 q=-0.0 size=N/A time=00:23:33.78 bitrate=N/A speed=18.5x    frame=34147 fps=444 q=-0.0 size=N/A time=00:23:44.21 bitrate=N/A speed=18.5x    [Parsed_psnr_10 @ 00000245dd44e680] PSNR y:47.820998 u:49.779331 v:50.159684 average:48.425255 min:41.944463 max:inf
[out#0/null @ 00000245db61ca80] video:14697KiB audio:267876KiB subtitle:0KiB other streams:0KiB global headers:0KiB muxing overhead: unknown
frame=34204 fps=444 q=-0.0 Lsize=N/A time=00:23:46.59 bitrate=N/A speed=18.5x    
